<svg xmlns="http://www.w3.org/2000/svg" width="64" height="64" viewBox="0 0 64 64">
  <defs>
    <linearGradient id="g" x1="0" y1="0" x2="1" y2="1">
      <stop offset="0" stop-color="#7c3aed"></stop>
      <stop offset="1" stop-color="#06b6d4"></stop>
    </linearGradient>
  </defs>
  <rect x="6" y="6" width="52" height="52" rx="16" fill="url(#g)"></rect>
  <path d="M38 22c-2.6-2.6-6.1-4-10-4-7.8 0-14 6.2-14 14s6.2 14 14 14c3.9 0 7.4-1.4 10-4l-4.2-4.2c-1.5 1.5-3.4 2.4-5.8 2.4-4.4 0-8-3.6-8-8s3.6-8 8-8c2.4 0 4.3.9 5.8 2.4L38 22z" fill="rgba(255,255,255,0.92)"></path>
</svg>
